<?xml version="1.0" encoding="UTF-8"?>
<svg xmlns="http://www.w3.org/2000/svg" version="1.1" viewBox="0 0 456.32 98.85">
  <defs>
    <style>
      .cls-1 {
        fill: #fff;
      }

      .cls-2 {
        fill: #ff4900;
      }
    </style>
  </defs>
  <!-- Generator: Adobe Illustrator 28.7.1, SVG Export Plug-In . SVG Version: 1.2.0 Build 142)  -->
  <g>
    <g id="Camada_1">
      <g>
        <g>
          <path d="M148.42,47.31c-3.6.05-7.21.01-10.8.01s-7.21-.06-10.81.02c-1.65.04-2.48-.32-2.46-2.23.09-6.81.07-13.63.02-20.44-.01-1.56.36-2.32,2.13-2.24,2.92.12,5.84.04,8.76.02,2.35-.01,4.12.94,5.25,3.03,3.33,6.14,6.7,12.26,9.98,18.42,1.29,2.42.68,3.38-2.06,3.42Z"/>
          <path class="cls-1" d="M50.58,77.83c.04,5.88-5.09,10.91-11.07,10.85-5.82-.05-10.8-5.05-10.8-10.84,0-5.96,5.06-10.91,11.08-10.83,5.89.08,10.75,4.96,10.8,10.82Z"/>
          <path class="cls-1" d="M156.08,77.65c.13,5.86-4.98,11.04-10.9,11.04-5.85,0-10.85-4.86-10.98-10.66-.13-5.92,4.88-10.99,10.9-11.01,5.87-.03,10.85,4.79,10.98,10.63Z"/>
          <g>
            <path class="cls-2" d="M172.29,58.54c-.02-5.87-2.83-10.03-8.02-12.53-2.31-1.11-3.98-2.68-5.23-4.88-3.49-6.18-7.14-12.28-10.56-18.5-3.32-6.05-8.67-8.44-15.17-8.77-3.7-.19-7.42-.03-11.13-.04-3,0-5.38.99-6.33,4.08-.24.77-.53,1.2-1.37,1.15-1.3-.07-.88-1.06-.9-1.73-.05-1.66-.01-3.32-.02-4.98,0-4.41-.3-4.72-4.61-4.72-16.51,0-33,0-49.51,0s-33.39.04-50.09-.03c-2.66-.01-3.89.76-3.88,3.67.08,21.77.08,43.55,0,65.32-.01,2.81,1,3.87,3.77,3.79,4.29-.12,8.6.05,12.89-.06,1.96-.05,3.01.27,3.71,2.51,1.89,5.98,7.57,9.71,13.88,9.7,6.2-.02,11.78-3.73,13.63-9.59.73-2.3,1.8-2.63,3.91-2.62,17.38.08,34.76.01,52.14.07,2.72,0,4.38-.76,4.15-3.81-.05-.63-.22-1.44.88-1.45.82-.01,1.15.36,1.39,1.15.96,3.08,3.29,4.12,6.32,4.07,1.95-.03,3.91.12,5.86-.03,1.83-.13,2.64.4,3.24,2.3,1.88,5.94,7.25,9.71,13.45,9.88,6.24.18,11.95-3.28,13.94-9.11.93-2.72,2.3-3.16,4.8-3.12,5.75.09,8.84-3.11,8.86-8.84,0-4.3,0-8.6-.02-12.89ZM39.51,88.68c-5.82-.05-10.8-5.05-10.8-10.84,0-5.96,5.06-10.91,11.08-10.83,5.89.08,10.75,4.96,10.8,10.82.04,5.88-5.09,10.91-11.07,10.85ZM145.18,88.69c-5.85,0-10.85-4.86-10.98-10.66-.13-5.92,4.88-10.99,10.9-11.01,5.87-.03,10.85,4.79,10.98,10.63.13,5.86-4.98,11.04-10.9,11.04ZM126.8,47.35c-1.65.04-2.48-.32-2.46-2.23.09-6.81.07-13.63.02-20.44-.01-1.56.36-2.32,2.13-2.24,2.92.12,5.84.04,8.76.02,2.35-.01,4.12.94,5.25,3.03,3.33,6.14,6.7,12.26,9.98,18.42,1.29,2.42.68,3.38-2.06,3.42-3.6.05-7.21.01-10.8.01s-7.21-.06-10.81.02Z"/>
            <path class="cls-1" d="M148.42,47.31c-3.6.05-7.21.01-10.8.01s-7.21-.06-10.81.02c-1.65.04-2.48-.32-2.46-2.23.09-6.81.07-13.63.02-20.44-.01-1.56.36-2.32,2.13-2.24,2.92.12,5.84.04,8.76.02,2.35-.01,4.12.94,5.25,3.03,3.33,6.14,6.7,12.26,9.98,18.42,1.29,2.42.68,3.38-2.06,3.42Z"/>
          </g>
        </g>
        <g>
          <path class="cls-2" d="M208.11,82.08h-20.99V12.11h56.38v17.34h-35.39v13.39h31.64v15.92h-31.64v23.32Z"/>
          <path class="cls-2" d="M259.93,82.08h-20.99l27.48-69.87h26.47l27.48,69.87h-21.4l-3.96-10.04h-30.93l-4.16,10.04ZM279.71,30.16l-10.34,26.77h20.48l-10.14-26.77Z"/>
          <path class="cls-2" d="M350.49,83.4c-3.65,0-7.17-.29-10.55-.86-3.38-.57-6.44-1.4-9.18-2.49-2.74-1.08-4.95-2.33-6.64-3.75v-17.95c2.23,1.96,4.78,3.52,7.66,4.67,2.87,1.15,5.81,1.96,8.82,2.43,3.01.47,5.8.71,8.37.71,3.45,0,6.24-.44,8.37-1.32,2.13-.88,3.19-2.37,3.19-4.46,0-1.22-.29-2.18-.86-2.89-.58-.71-1.39-1.23-2.43-1.57-1.05-.34-2.28-.61-3.7-.81-1.42-.2-2.98-.41-4.66-.61-3.85-.34-7.32-1-10.39-1.98-3.08-.98-5.75-2.28-8.01-3.9-2.27-1.62-3.99-3.65-5.17-6.08-1.18-2.43-1.77-5.31-1.77-8.62,0-4.67,1.22-8.7,3.65-12.12,2.43-3.41,5.97-6.1,10.6-8.06,4.63-1.96,10.16-2.94,16.58-2.94,3.38,0,6.68.29,9.89.86,3.21.58,6.13,1.34,8.77,2.28,2.64.95,4.77,2.06,6.39,3.35v17.34c-1.69-1.49-3.77-2.75-6.24-3.8-2.47-1.05-5.12-1.88-7.96-2.49-2.84-.61-5.61-.91-8.32-.91-3.65,0-6.42.42-8.32,1.27-1.89.85-2.84,2.25-2.84,4.21,0,1.76.93,2.98,2.79,3.65,1.86.68,4.88,1.29,9.08,1.83,3.92.41,7.47,1.06,10.65,1.98,3.18.91,5.9,2.21,8.16,3.9,2.26,1.69,4.01,3.82,5.22,6.39,1.22,2.57,1.83,5.71,1.83,9.43,0,5.14-1.39,9.45-4.16,12.93-2.77,3.48-6.63,6.08-11.56,7.81-4.94,1.72-10.68,2.59-17.24,2.59Z"/>
          <path class="cls-2" d="M427.66,82.08h-21.09l.1-52.63h-21.6V12.21h63.89v17.24h-21.3v52.63Z"/>
        </g>
      </g>
    </g>
  </g>
</svg>